<svg xmlns="http://www.w3.org/2000/svg" version="1.1" xmlns:xlink="http://www.w3.org/1999/xlink" xmlns:svgjs="http://svgjs.dev/svgjs" viewBox="0 0 800 800"><rect width="100%" height="100%" fill="hsl(0, 0%, 100%)"></rect><g fill="hsl(265, 55%, 20%)"><rect width="96" height="1" x="593" y="161.5" rx="0.5" transform="rotate(45, 641, 162)" opacity="0.52"></rect><rect width="291" height="1" x="20.5" y="27.5" rx="0.5" transform="rotate(45, 166, 28)" opacity="0.81"></rect><rect width="144" height="1" x="250" y="656.5" rx="0.5" transform="rotate(45, 322, 657)" opacity="0.77"></rect><rect width="511" height="1" x="208.5" y="165.5" rx="0.5" transform="rotate(45, 464, 166)" opacity="0.30"></rect><rect width="422" height="1" x="296" y="28.5" rx="0.5" transform="rotate(45, 507, 29)" opacity="0.93"></rect><rect width="631" height="1" x="190.5" y="545.5" rx="0.5" transform="rotate(45, 506, 546)" opacity="0.23"></rect><rect width="552" height="1" x="-221" y="301.5" rx="0.5" transform="rotate(45, 55, 302)" opacity="0.77"></rect><rect width="235" height="1" x="464.5" y="439.5" rx="0.5" transform="rotate(45, 582, 440)" opacity="0.55"></rect><rect width="64" height="1" x="175" y="91.5" rx="0.5" transform="rotate(45, 207, 92)" opacity="0.70"></rect><rect width="427" height="1" x="375.5" y="227.5" rx="0.5" transform="rotate(45, 589, 228)" opacity="0.74"></rect><rect width="49" height="1" x="280.5" y="139.5" rx="0.5" transform="rotate(45, 305, 140)" opacity="0.76"></rect><rect width="677" height="1" x="403.5" y="549.5" rx="0.5" transform="rotate(45, 742, 550)" opacity="0.83"></rect><rect width="67" height="1" x="570.5" y="511.5" rx="0.5" transform="rotate(45, 604, 512)" opacity="0.82"></rect><rect width="697" height="1" x="404.5" y="136.5" rx="0.5" transform="rotate(45, 753, 137)" opacity="0.67"></rect><rect width="315" height="1" x="-52.5" y="521.5" rx="0.5" transform="rotate(45, 105, 522)" opacity="0.87"></rect><rect width="61" height="1" x="11.5" y="710.5" rx="0.5" transform="rotate(45, 42, 711)" opacity="0.26"></rect><rect width="104" height="1" x="408" y="364.5" rx="0.5" transform="rotate(45, 460, 365)" opacity="0.30"></rect><rect width="122" height="1" x="316" y="330.5" rx="0.5" transform="rotate(45, 377, 331)" opacity="0.26"></rect><rect width="118" height="1" x="356" y="602.5" rx="0.5" transform="rotate(45, 415, 603)" opacity="0.85"></rect><rect width="258" height="1" x="611" y="460.5" rx="0.5" transform="rotate(45, 740, 461)" opacity="0.49"></rect><rect width="319" height="1" x="301.5" y="85.5" rx="0.5" transform="rotate(45, 461, 86)" opacity="0.25"></rect><rect width="166" height="1" x="547" y="747.5" rx="0.5" transform="rotate(45, 630, 748)" opacity="0.42"></rect><rect width="265" height="1" x="185.5" y="510.5" rx="0.5" transform="rotate(45, 318, 511)" opacity="0.07"></rect><rect width="674" height="1" x="414" y="378.5" rx="0.5" transform="rotate(45, 751, 379)" opacity="0.74"></rect><rect width="210" height="1" x="539" y="305.5" rx="0.5" transform="rotate(45, 644, 306)" opacity="0.92"></rect><rect width="295" height="1" x="-108.5" y="591.5" rx="0.5" transform="rotate(45, 39, 592)" opacity="0.35"></rect><rect width="300" height="1" x="218" y="424.5" rx="0.5" transform="rotate(45, 368, 425)" opacity="0.92"></rect><rect width="180" height="1" x="363" y="444.5" rx="0.5" transform="rotate(45, 453, 445)" opacity="0.31"></rect><rect width="375" height="1" x="91.5" y="282.5" rx="0.5" transform="rotate(45, 279, 283)" opacity="0.12"></rect><rect width="585" height="1" x="-12.5" y="42.5" rx="0.5" transform="rotate(45, 280, 43)" opacity="0.78"></rect><rect width="461" height="1" x="288.5" y="465.5" rx="0.5" transform="rotate(45, 519, 466)" opacity="0.60"></rect><rect width="152" height="1" x="469" y="378.5" rx="0.5" transform="rotate(45, 545, 379)" opacity="0.40"></rect><rect width="212" height="1" x="310" y="511.5" rx="0.5" transform="rotate(45, 416, 512)" opacity="0.43"></rect><rect width="382" height="1" x="131" y="757.5" rx="0.5" transform="rotate(45, 322, 758)" opacity="0.19"></rect><rect width="352" height="1" x="-107" y="63.5" rx="0.5" transform="rotate(45, 69, 64)" opacity="0.31"></rect><rect width="303" height="1" x="27.5" y="759.5" rx="0.5" transform="rotate(45, 179, 760)" opacity="0.99"></rect><rect width="685" height="1" x="-70.5" y="412.5" rx="0.5" transform="rotate(45, 272, 413)" opacity="0.85"></rect><rect width="608" height="1" x="149" y="736.5" rx="0.5" transform="rotate(45, 453, 737)" opacity="0.77"></rect><rect width="699" height="1" x="387.5" y="686.5" rx="0.5" transform="rotate(45, 737, 687)" opacity="0.41"></rect><rect width="44" height="1" x="58" y="387.5" rx="0.5" transform="rotate(45, 80, 388)" opacity="0.11"></rect><rect width="662" height="1" x="-168" y="447.5" rx="0.5" transform="rotate(45, 163, 448)" opacity="0.63"></rect><rect width="701" height="1" x="182.5" y="662.5" rx="0.5" transform="rotate(45, 533, 663)" opacity="0.85"></rect><rect width="256" height="1" x="306" y="243.5" rx="0.5" transform="rotate(45, 434, 244)" opacity="0.52"></rect><rect width="142" height="1" x="112" y="177.5" rx="0.5" transform="rotate(45, 183, 178)" opacity="0.99"></rect><rect width="531" height="1" x="456.5" y="45.5" rx="0.5" transform="rotate(45, 722, 46)" opacity="0.49"></rect><rect width="58" height="1" x="136" y="269.5" rx="0.5" transform="rotate(45, 165, 270)" opacity="0.10"></rect><rect width="163" height="1" x="531.5" y="593.5" rx="0.5" transform="rotate(45, 613, 594)" opacity="0.50"></rect><rect width="188" height="1" x="566" y="465.5" rx="0.5" transform="rotate(45, 660, 466)" opacity="0.84"></rect><rect width="96" height="1" x="290" y="217.5" rx="0.5" transform="rotate(45, 338, 218)" opacity="0.67"></rect><rect width="778" height="1" x="354" y="262.5" rx="0.5" transform="rotate(45, 743, 263)" opacity="0.70"></rect><rect width="375" height="1" x="-91.5" y="663.5" rx="0.5" transform="rotate(45, 96, 664)" opacity="0.08"></rect><rect width="666" height="1" x="209" y="108.5" rx="0.5" transform="rotate(45, 542, 109)" opacity="0.41"></rect><rect width="387" height="1" x="-156.5" y="473.5" rx="0.5" transform="rotate(45, 37, 474)" opacity="0.48"></rect><rect width="286" height="1" x="211" y="33.5" rx="0.5" transform="rotate(45, 354, 34)" opacity="0.77"></rect><rect width="182" height="1" x="434" y="289.5" rx="0.5" transform="rotate(45, 525, 290)" opacity="0.26"></rect><rect width="263" height="1" x="513.5" y="382.5" rx="0.5" transform="rotate(45, 645, 383)" opacity="0.13"></rect><rect width="345" height="1" x="440.5" y="49.5" rx="0.5" transform="rotate(45, 613, 50)" opacity="0.76"></rect><rect width="368" height="1" x="-123" y="772.5" rx="0.5" transform="rotate(45, 61, 773)" opacity="0.62"></rect><rect width="227" height="1" x="97.5" y="683.5" rx="0.5" transform="rotate(45, 211, 684)" opacity="0.56"></rect><rect width="147" height="1" x="-19.5" y="178.5" rx="0.5" transform="rotate(45, 54, 179)" opacity="0.97"></rect><rect width="28" height="1" x="413" y="24.5" rx="0.5" transform="rotate(45, 427, 25)" opacity="0.24"></rect><rect width="143" height="1" x="316.5" y="98.5" rx="0.5" transform="rotate(45, 388, 99)" opacity="0.75"></rect><rect width="439" height="1" x="-57.5" y="614.5" rx="0.5" transform="rotate(45, 162, 615)" opacity="0.40"></rect><rect width="536" height="1" x="-98" y="541.5" rx="0.5" transform="rotate(45, 170, 542)" opacity="0.81"></rect><rect width="324" height="1" x="91" y="563.5" rx="0.5" transform="rotate(45, 253, 564)" opacity="0.65"></rect><rect width="149" height="1" x="126.5" y="355.5" rx="0.5" transform="rotate(45, 201, 356)" opacity="0.63"></rect></g></svg>